<mxfile host="app.diagrams.net" modified="2023-05-18T14:01:40.787Z" agent="Mozilla/5.0 (X11; Linux x86_64; rv:109.0) Gecko/20100101 Firefox/111.0" etag="SspDyrTNNP1K71vdOp5i" version="21.2.9" type="device">
  <diagram name="Page-1" id="T4MPQ8lKf1h7LrcvSkuy">
    <mxGraphModel dx="726" dy="854" grid="1" gridSize="10" guides="1" tooltips="1" connect="1" arrows="1" fold="1" page="1" pageScale="1" pageWidth="850" pageHeight="1100" math="0" shadow="0">
      <root>
        <mxCell id="0" />
        <mxCell id="1" parent="0" />
        <mxCell id="8x5GT1snaixabzl1LhQP-1" value="" style="ellipse;html=1;shape=startState;fillColor=#000000;strokeColor=#ff0000;" vertex="1" parent="1">
          <mxGeometry x="410" y="20" width="30" height="30" as="geometry" />
        </mxCell>
        <mxCell id="8x5GT1snaixabzl1LhQP-2" value="" style="edgeStyle=orthogonalEdgeStyle;html=1;verticalAlign=bottom;endArrow=open;endSize=8;strokeColor=#ff0000;rounded=0;" edge="1" source="8x5GT1snaixabzl1LhQP-1" parent="1" target="8x5GT1snaixabzl1LhQP-3">
          <mxGeometry relative="1" as="geometry">
            <mxPoint x="425" y="110" as="targetPoint" />
          </mxGeometry>
        </mxCell>
        <mxCell id="8x5GT1snaixabzl1LhQP-3" value="Planning" style="rounded=1;whiteSpace=wrap;html=1;arcSize=40;fontColor=#000000;fillColor=#ffffc0;strokeColor=#ff0000;" vertex="1" parent="1">
          <mxGeometry x="365" y="110" width="120" height="40" as="geometry" />
        </mxCell>
        <mxCell id="8x5GT1snaixabzl1LhQP-4" value="" style="edgeStyle=orthogonalEdgeStyle;html=1;verticalAlign=bottom;endArrow=open;endSize=8;strokeColor=#ff0000;rounded=0;" edge="1" source="8x5GT1snaixabzl1LhQP-3" parent="1" target="8x5GT1snaixabzl1LhQP-5">
          <mxGeometry relative="1" as="geometry">
            <mxPoint x="425" y="210" as="targetPoint" />
          </mxGeometry>
        </mxCell>
        <mxCell id="8x5GT1snaixabzl1LhQP-5" value="Setting parameters" style="rounded=1;whiteSpace=wrap;html=1;arcSize=40;fontColor=#000000;fillColor=#ffffc0;strokeColor=#ff0000;" vertex="1" parent="1">
          <mxGeometry x="365" y="210" width="120" height="40" as="geometry" />
        </mxCell>
        <mxCell id="8x5GT1snaixabzl1LhQP-6" value="" style="edgeStyle=orthogonalEdgeStyle;html=1;verticalAlign=bottom;endArrow=open;endSize=8;strokeColor=#ff0000;rounded=0;" edge="1" source="8x5GT1snaixabzl1LhQP-5" parent="1" target="8x5GT1snaixabzl1LhQP-7">
          <mxGeometry relative="1" as="geometry">
            <mxPoint x="425" y="310" as="targetPoint" />
          </mxGeometry>
        </mxCell>
        <mxCell id="8x5GT1snaixabzl1LhQP-7" value="Create initial population" style="rounded=1;whiteSpace=wrap;html=1;arcSize=40;fontColor=#000000;fillColor=#ffffc0;strokeColor=#ff0000;" vertex="1" parent="1">
          <mxGeometry x="365" y="310" width="120" height="40" as="geometry" />
        </mxCell>
        <mxCell id="8x5GT1snaixabzl1LhQP-8" value="" style="edgeStyle=orthogonalEdgeStyle;html=1;verticalAlign=bottom;endArrow=open;endSize=8;strokeColor=#ff0000;rounded=0;" edge="1" source="8x5GT1snaixabzl1LhQP-7" parent="1" target="8x5GT1snaixabzl1LhQP-9">
          <mxGeometry relative="1" as="geometry">
            <mxPoint x="425" y="410" as="targetPoint" />
          </mxGeometry>
        </mxCell>
        <mxCell id="8x5GT1snaixabzl1LhQP-9" value="Fitness evaluation" style="rounded=1;whiteSpace=wrap;html=1;arcSize=40;fontColor=#000000;fillColor=#ffffc0;strokeColor=#ff0000;" vertex="1" parent="1">
          <mxGeometry x="365" y="410" width="120" height="40" as="geometry" />
        </mxCell>
        <mxCell id="8x5GT1snaixabzl1LhQP-10" value="" style="edgeStyle=orthogonalEdgeStyle;html=1;verticalAlign=bottom;endArrow=open;endSize=8;strokeColor=#ff0000;rounded=0;" edge="1" source="8x5GT1snaixabzl1LhQP-9" parent="1" target="8x5GT1snaixabzl1LhQP-35">
          <mxGeometry relative="1" as="geometry">
            <mxPoint x="425" y="510" as="targetPoint" />
          </mxGeometry>
        </mxCell>
        <mxCell id="8x5GT1snaixabzl1LhQP-13" value="Selection" style="rounded=1;whiteSpace=wrap;html=1;arcSize=40;fontColor=#000000;fillColor=#ffffc0;strokeColor=#ff0000;" vertex="1" parent="1">
          <mxGeometry x="170" y="680" width="120" height="40" as="geometry" />
        </mxCell>
        <mxCell id="8x5GT1snaixabzl1LhQP-14" value="" style="edgeStyle=orthogonalEdgeStyle;html=1;verticalAlign=bottom;endArrow=open;endSize=8;strokeColor=#ff0000;rounded=0;" edge="1" source="8x5GT1snaixabzl1LhQP-13" parent="1" target="8x5GT1snaixabzl1LhQP-15">
          <mxGeometry relative="1" as="geometry">
            <mxPoint x="190" y="780" as="targetPoint" />
          </mxGeometry>
        </mxCell>
        <mxCell id="8x5GT1snaixabzl1LhQP-15" value="Crossover" style="rounded=1;whiteSpace=wrap;html=1;arcSize=40;fontColor=#000000;fillColor=#ffffc0;strokeColor=#ff0000;" vertex="1" parent="1">
          <mxGeometry x="365" y="680" width="120" height="40" as="geometry" />
        </mxCell>
        <mxCell id="8x5GT1snaixabzl1LhQP-16" value="" style="edgeStyle=orthogonalEdgeStyle;html=1;verticalAlign=bottom;endArrow=open;endSize=8;strokeColor=#ff0000;rounded=0;" edge="1" source="8x5GT1snaixabzl1LhQP-15" parent="1" target="8x5GT1snaixabzl1LhQP-17">
          <mxGeometry relative="1" as="geometry">
            <mxPoint x="425" y="780" as="targetPoint" />
          </mxGeometry>
        </mxCell>
        <mxCell id="8x5GT1snaixabzl1LhQP-17" value="Mutation" style="rounded=1;whiteSpace=wrap;html=1;arcSize=40;fontColor=#000000;fillColor=#ffffc0;strokeColor=#ff0000;" vertex="1" parent="1">
          <mxGeometry x="560" y="680" width="120" height="40" as="geometry" />
        </mxCell>
        <mxCell id="8x5GT1snaixabzl1LhQP-18" value="" style="edgeStyle=orthogonalEdgeStyle;html=1;verticalAlign=bottom;endArrow=open;endSize=8;strokeColor=#ff0000;rounded=0;" edge="1" source="8x5GT1snaixabzl1LhQP-17" parent="1" target="8x5GT1snaixabzl1LhQP-19">
          <mxGeometry relative="1" as="geometry">
            <mxPoint x="640" y="780" as="targetPoint" />
            <Array as="points">
              <mxPoint x="580" y="810" />
            </Array>
          </mxGeometry>
        </mxCell>
        <mxCell id="8x5GT1snaixabzl1LhQP-19" value="Population size met?" style="rhombus;whiteSpace=wrap;html=1;fontColor=#000000;fillColor=#ffffc0;strokeColor=#ff0000;" vertex="1" parent="1">
          <mxGeometry x="345" y="770" width="160" height="80" as="geometry" />
        </mxCell>
        <mxCell id="8x5GT1snaixabzl1LhQP-20" value="no" style="edgeStyle=orthogonalEdgeStyle;html=1;align=left;verticalAlign=bottom;endArrow=open;endSize=8;strokeColor=#ff0000;rounded=0;" edge="1" source="8x5GT1snaixabzl1LhQP-19" parent="1" target="8x5GT1snaixabzl1LhQP-13">
          <mxGeometry x="-0.8" relative="1" as="geometry">
            <mxPoint x="470" y="910" as="targetPoint" />
            <mxPoint as="offset" />
          </mxGeometry>
        </mxCell>
        <mxCell id="8x5GT1snaixabzl1LhQP-21" value="yes" style="edgeStyle=orthogonalEdgeStyle;html=1;align=left;verticalAlign=top;endArrow=open;endSize=8;strokeColor=#ff0000;rounded=0;" edge="1" source="8x5GT1snaixabzl1LhQP-19" parent="1" target="8x5GT1snaixabzl1LhQP-22">
          <mxGeometry x="-1" relative="1" as="geometry">
            <mxPoint x="410" y="910" as="targetPoint" />
          </mxGeometry>
        </mxCell>
        <mxCell id="8x5GT1snaixabzl1LhQP-22" value="Replace population" style="rounded=1;whiteSpace=wrap;html=1;arcSize=40;fontColor=#000000;fillColor=#ffffc0;strokeColor=#ff0000;" vertex="1" parent="1">
          <mxGeometry x="365" y="910" width="120" height="40" as="geometry" />
        </mxCell>
        <mxCell id="8x5GT1snaixabzl1LhQP-27" value="Pick the winner" style="rounded=1;whiteSpace=wrap;html=1;arcSize=40;fontColor=#000000;fillColor=#ffffc0;strokeColor=#ff0000;" vertex="1" parent="1">
          <mxGeometry x="365" y="1010" width="120" height="40" as="geometry" />
        </mxCell>
        <mxCell id="8x5GT1snaixabzl1LhQP-28" value="" style="edgeStyle=orthogonalEdgeStyle;html=1;verticalAlign=bottom;endArrow=open;endSize=8;strokeColor=#ff0000;rounded=0;" edge="1" source="8x5GT1snaixabzl1LhQP-27" parent="1" target="8x5GT1snaixabzl1LhQP-29">
          <mxGeometry relative="1" as="geometry">
            <mxPoint x="425" y="1110" as="targetPoint" />
          </mxGeometry>
        </mxCell>
        <mxCell id="8x5GT1snaixabzl1LhQP-29" value="" style="ellipse;html=1;shape=endState;fillColor=#000000;strokeColor=#ff0000;" vertex="1" parent="1">
          <mxGeometry x="410" y="1110" width="30" height="30" as="geometry" />
        </mxCell>
        <mxCell id="8x5GT1snaixabzl1LhQP-30" value="" style="rounded=1;whiteSpace=wrap;html=1;fillColor=none;strokeColor=#0000CC;" vertex="1" parent="1">
          <mxGeometry x="150" y="660" width="550" height="80" as="geometry" />
        </mxCell>
        <mxCell id="8x5GT1snaixabzl1LhQP-31" value="&lt;font style=&quot;font-size: 14px;&quot; color=&quot;#0000cc&quot;&gt;Breeding&lt;/font&gt;" style="text;html=1;strokeColor=none;fillColor=none;align=center;verticalAlign=middle;whiteSpace=wrap;rounded=0;" vertex="1" parent="1">
          <mxGeometry x="395" y="630" width="60" height="30" as="geometry" />
        </mxCell>
        <mxCell id="8x5GT1snaixabzl1LhQP-35" value="Stopping condition met?" style="rhombus;whiteSpace=wrap;html=1;fontColor=#000000;fillColor=#ffffc0;strokeColor=#ff0000;" vertex="1" parent="1">
          <mxGeometry x="345" y="510" width="160" height="80" as="geometry" />
        </mxCell>
        <mxCell id="8x5GT1snaixabzl1LhQP-36" value="no" style="edgeStyle=orthogonalEdgeStyle;html=1;align=left;verticalAlign=bottom;endArrow=open;endSize=8;strokeColor=#ff0000;rounded=0;" edge="1" source="8x5GT1snaixabzl1LhQP-35" parent="1" target="8x5GT1snaixabzl1LhQP-13">
          <mxGeometry x="-0.7917" relative="1" as="geometry">
            <mxPoint x="250" y="640" as="targetPoint" />
            <Array as="points">
              <mxPoint x="235" y="550" />
            </Array>
            <mxPoint x="-1" as="offset" />
          </mxGeometry>
        </mxCell>
        <mxCell id="8x5GT1snaixabzl1LhQP-37" value="yes" style="edgeStyle=orthogonalEdgeStyle;html=1;align=left;verticalAlign=top;endArrow=open;endSize=8;strokeColor=#ff0000;rounded=0;" edge="1" source="8x5GT1snaixabzl1LhQP-35" parent="1" target="8x5GT1snaixabzl1LhQP-27">
          <mxGeometry x="-1" relative="1" as="geometry">
            <mxPoint x="425" y="630" as="targetPoint" />
            <Array as="points">
              <mxPoint x="720" y="550" />
              <mxPoint x="720" y="1030" />
            </Array>
          </mxGeometry>
        </mxCell>
        <mxCell id="8x5GT1snaixabzl1LhQP-42" value="" style="edgeStyle=orthogonalEdgeStyle;html=1;verticalAlign=bottom;endArrow=open;endSize=8;strokeColor=#ff0000;rounded=0;" edge="1" source="8x5GT1snaixabzl1LhQP-22" parent="1" target="8x5GT1snaixabzl1LhQP-9">
          <mxGeometry relative="1" as="geometry">
            <mxPoint x="70" y="1050" as="targetPoint" />
            <Array as="points">
              <mxPoint x="130" y="930" />
              <mxPoint x="130" y="430" />
            </Array>
          </mxGeometry>
        </mxCell>
        <mxCell id="8x5GT1snaixabzl1LhQP-43" value="Start" style="text;align=center;fontStyle=1;verticalAlign=middle;spacingLeft=3;spacingRight=3;strokeColor=none;rotatable=0;points=[[0,0.5],[1,0.5]];portConstraint=eastwest;html=1;" vertex="1" parent="1">
          <mxGeometry x="420" y="24" width="80" height="26" as="geometry" />
        </mxCell>
        <mxCell id="8x5GT1snaixabzl1LhQP-44" value="End" style="text;align=center;fontStyle=1;verticalAlign=middle;spacingLeft=3;spacingRight=3;strokeColor=none;rotatable=0;points=[[0,0.5],[1,0.5]];portConstraint=eastwest;html=1;" vertex="1" parent="1">
          <mxGeometry x="420" y="1114" width="80" height="26" as="geometry" />
        </mxCell>
      </root>
    </mxGraphModel>
  </diagram>
</mxfile>
